#N canvas 3072 269 1221 384 12;
#X obj 24 17 iemnet/udpreceive 8000;
#X obj 40 138 dac~;
#X floatatom 159 86 5 0 0 0 - - - 0;
#X msg 282 43 connect 127.0.0.1 9000;
#X obj 282 12 loadbang;
#X obj 282 154 mytools/autobassc;
#X obj 252 106 tgl 19 0 empty empty empty 0 -10 0 12 #fcfcfc #000000 #000000 0 1;
#X obj 282 185 tgl 19 0 empty empty empty 0 -10 0 12 #fcfcfc #000000 #000000 0 1;
#X msg 423 74 symbol D;
#X msg 430 96 symbol E;
#X msg 496 73 symbol major;
#X msg 506 96 symbol harmonic_minor;
#X floatatom 510 169 5 0 0 0 - - - 0;
#X msg 641 137 5;
#X msg 510 137 1;
#X msg 593 136 4;
#X msg 549 137 2;
#X msg 560 220 symbol eighths;
#X msg 559 189 symbol habanera;
#X msg 559 253 symbol quarters;
#X msg 560 284 symbol walking;
#X floatatom 852 181 5 30 200 1 BPM - - 0;
#X obj 722 181 mytools/mymetro;
#X obj 723 97 tgl 19 0 empty empty empty 0 -10 0 12 #fcfcfc #000000 #000000 0 1;
#X floatatom 813 218 5 0 0 0 - - - 0;
#X obj 756 212 bng 19 250 50 0 empty empty empty 0 -10 0 12 #fcfcfc #000000 #000000;
#X msg 807 25 100;
#X obj 813 242 sel 3;
#X obj 852 19 vsl 19 150 10 200 0 1 empty empty empty 0 -9 0 12 #fcfcfc #000000 #000000 11108 1;
#X msg 773 146 4;
#X obj 867 219 s tempo;
#X obj 296 68 r tempo;
#X obj 756 248 s bar;
#X obj 813 266 s preBar;
#X obj 311 92 r bar;
#X obj 325 115 r preBar;
#X symbolatom 442 212 10 0 0 0 - - - 0;
#X text 470 46 Scale and type;
#X text 545 115 chord degree;
#X text 589 167 Rhythm;
#X obj 40 51 mytools/autobassi;
#X text 737 305 1.- Configurar bajo 2.- Encender metrónomo 3.- Habilitar bajo;
#X connect 0 0 40 0;
#X connect 3 0 5 0;
#X connect 4 0 3 0;
#X connect 5 0 7 0;
#X connect 6 0 5 4;
#X connect 8 0 5 5;
#X connect 9 0 5 5;
#X connect 10 0 5 6;
#X connect 11 0 5 6;
#X connect 12 0 5 7;
#X connect 13 0 12 0;
#X connect 14 0 12 0;
#X connect 15 0 12 0;
#X connect 16 0 12 0;
#X connect 17 0 36 0;
#X connect 18 0 36 0;
#X connect 19 0 36 0;
#X connect 20 0 36 0;
#X connect 21 0 22 2;
#X connect 21 0 30 0;
#X connect 22 1 25 0;
#X connect 22 2 24 0;
#X connect 23 0 22 0;
#X connect 23 0 29 0;
#X connect 24 0 27 0;
#X connect 25 0 32 0;
#X connect 26 0 28 0;
#X connect 27 0 33 0;
#X connect 28 0 21 0;
#X connect 29 0 22 1;
#X connect 31 0 5 1;
#X connect 34 0 5 2;
#X connect 35 0 5 3;
#X connect 36 0 5 8;
#X connect 40 0 1 0;
#X connect 40 0 1 1;
#X connect 40 1 2 0;
