#N canvas 3839 287 641 552 12;
#X msg 10 288 disconnect;
#X obj 200 244 oscformat bass enable;
#X obj 283 344 oscformat bass degree;
#X obj 53 337 iemnet/udpsend;
#X obj 86 107 oscformat transport tempo;
#X obj 119 133 bng 19 250 50 0 empty empty empty 0 -10 0 12 #fcfcfc #000000 #000000;
#X obj 119 161 oscformat transport start;
#X obj 162 209 oscformat transport stop;
#X obj 162 183 bng 19 250 50 0 empty empty empty 0 -10 0 12 #fcfcfc #000000 #000000;
#X obj 305 374 oscformat bass rhythm;
#X obj 232 275 oscformat bass key;
#X obj 256 308 oscformat bass keyType;
#X obj 52 53 inlet;
#X text 36 28 ip/port;
#X obj 322 54 inlet;
#X text 319 29 enable;
#X obj 55 456 outlet;
#X text 45 473 connected?;
#X obj 383 54 inlet;
#X text 390 28 key;
#X obj 443 54 inlet;
#X text 439 27 key type;
#X obj 526 55 inlet;
#X text 528 28 degree;
#X obj 107 52 inlet;
#X text 105 27 tempo;
#X obj 183 50 inlet;
#X obj 245 51 inlet;
#X text 161 27 bar start;
#X text 243 28 pre bar;
#X text 167 9 SYNC INPUTS;
#X obj 592 52 inlet;
#X text 588 27 rhythm;
#X connect 0 0 3 0;
#X connect 1 0 3 0;
#X connect 2 0 3 0;
#X connect 3 0 16 0;
#X connect 4 0 3 0;
#X connect 5 0 6 0;
#X connect 6 0 3 0;
#X connect 7 0 3 0;
#X connect 8 0 7 0;
#X connect 9 0 3 0;
#X connect 10 0 3 0;
#X connect 11 0 3 0;
#X connect 12 0 3 0;
#X connect 14 0 1 0;
#X connect 18 0 10 0;
#X connect 20 0 11 0;
#X connect 22 0 2 0;
#X connect 24 0 4 0;
#X connect 26 0 5 0;
#X connect 27 0 8 0;
#X connect 31 0 9 0;
