#N canvas 1408 367 509 514 12;
#X obj 186 317 bng 19 250 50 0 empty empty empty 0 -10 0 12 #fcfcfc #000000 #000000;
#X obj 98 131 tgl 19 0 empty empty empty 0 -10 0 12 #fcfcfc #000000 #000000 0 1;
#X floatatom 230 214 5 0 0 0 - - - 0;
#X obj 230 188 /;
#X msg 230 262 \$1;
#X obj 198 292 metro;
#X obj 84 407 bng 19 250 50 0 empty empty empty 0 -10 0 12 #fcfcfc #000000 #000000;
#X obj 89 212 + 1;
#X obj 89 178 f 0;
#X obj 92 275 + 1;
#X floatatom 92 309 5 0 0 0 - - - 0;
#X obj 96 42 inlet;
#X obj 290 40 inlet;
#X floatatom 289 119 5 0 0 0 - - - 0;
#X obj 170 43 inlet;
#X floatatom 155 124 5 0 0 0 - - - 0;
#X obj 90 244 mod, f 4;
#X floatatom 200 154 5 0 0 0 - - - 0;
#X text 82 19 enable;
#X text 143 17 subdivision;
#X text 292 21 tempo;
#X obj 104 438 outlet;
#X obj 323 426 outlet;
#X msg 198 123 60000;
#X obj 246 82 bng 19 250 50 0 empty empty empty 0 -10 0 12 #fcfcfc #000000 #000000;
#X obj 188 426 outlet;
#X text 167 446 bar begin flag;
#X obj 144 369 sel 1;
#X obj 418 240 + 1;
#X obj 418 206 f 0;
#X obj 421 303 + 1;
#X floatatom 421 337 5 0 0 0 - - - 0;
#X obj 419 272 mod 4;
#X obj 422 424 outlet;
#X text 417 452 bar count;
#X text 321 448 beat count;
#X text 94 461 beat flag;
#X obj 230 238 * 0.5;
#X obj 26 402 bng 19 250 50 0 empty empty empty 0 -10 0 12 #fcfcfc #000000 #000000;
#X obj 16 436 outlet;
#X text 5 459 half tempo;
#X obj 321 264 + 1;
#X obj 321 230 f 0;
#X obj 324 327 + 1;
#X floatatom 324 361 5 0 0 0 - - - 0;
#X obj 322 296 mod 4;
#X obj 83 381 sel 1;
#X obj 87 349 mod 2;
#X connect 0 0 8 0;
#X connect 1 0 5 0;
#X connect 2 0 37 0;
#X connect 3 0 2 0;
#X connect 4 0 5 1;
#X connect 5 0 0 0;
#X connect 6 0 21 0;
#X connect 7 0 16 0;
#X connect 8 0 7 0;
#X connect 9 0 10 0;
#X connect 10 0 27 0;
#X connect 10 0 38 0;
#X connect 10 0 47 0;
#X connect 11 0 1 0;
#X connect 11 0 24 0;
#X connect 12 0 13 0;
#X connect 12 0 24 0;
#X connect 13 0 3 1;
#X connect 14 0 15 0;
#X connect 14 0 24 0;
#X connect 15 0 16 1;
#X connect 16 0 8 1;
#X connect 16 0 9 0;
#X connect 17 0 3 0;
#X connect 23 0 17 0;
#X connect 24 0 23 0;
#X connect 24 0 13 0;
#X connect 24 0 15 0;
#X connect 27 0 25 0;
#X connect 27 0 29 0;
#X connect 28 0 32 0;
#X connect 29 0 28 0;
#X connect 30 0 31 0;
#X connect 31 0 33 0;
#X connect 32 0 29 1;
#X connect 32 0 30 0;
#X connect 37 0 4 0;
#X connect 38 0 39 0;
#X connect 41 0 45 0;
#X connect 42 0 41 0;
#X connect 43 0 44 0;
#X connect 44 0 22 0;
#X connect 45 0 42 1;
#X connect 45 0 43 0;
#X connect 46 0 6 0;
#X connect 46 0 42 0;
#X connect 47 0 46 0;
